<svg xmlns="http://www.w3.org/2000/svg" xmlns:xlink="http://www.w3.org/1999/xlink" width="500" zoomAndPan="magnify" viewBox="0 0 375 374.999991" height="500" preserveAspectRatio="xMidYMid meet" version="1.0"><defs><g/><clipPath id="31c6389039"><path d="M 0 19.285156 L 375 19.285156 L 375 270 L 0 270 Z M 0 19.285156 " clip-rule="nonzero"/></clipPath></defs><g clip-path="url(#31c6389039)"><path fill="#004aad" d="M 375 191.390625 C 375 234.558594 340.003906 269.515625 296.867188 269.515625 L 78.113281 269.515625 C 34.980469 269.515625 0 234.550781 0 191.390625 L 0 97.636719 C 0 54.515625 34.980469 19.539062 78.113281 19.539062 L 296.859375 19.539062 C 340.003906 19.539062 374.96875 54.515625 374.96875 97.636719 L 374.96875 191.390625 Z M 375 191.390625 " fill-opacity="1" fill-rule="nonzero"/></g><path fill="#004aad" d="M 109.378906 259.109375 L 109.378906 355.453125 L 207.015625 257.800781 Z M 109.378906 259.109375 " fill-opacity="1" fill-rule="nonzero"/><g fill="#ffffff" fill-opacity="1"><g transform="translate(31.516137, 134.747513)"><g><path d="M 39.890625 -84.15625 C 45.660156 -84.15625 50.738281 -83.34375 55.125 -81.71875 C 59.519531 -80.101562 61.71875 -77.910156 61.71875 -75.140625 C 61.71875 -72.367188 60.671875 -68.945312 58.578125 -64.875 C 56.484375 -60.800781 54.722656 -58.765625 53.296875 -58.765625 C 52.898438 -58.765625 52.441406 -58.976562 51.921875 -59.40625 C 51.410156 -59.84375 50.222656 -60.316406 48.359375 -60.828125 C 46.503906 -61.347656 44.90625 -61.609375 43.5625 -61.609375 C 38.96875 -61.609375 35.265625 -59.984375 32.453125 -56.734375 C 29.648438 -53.492188 28.25 -48.53125 28.25 -41.84375 C 28.25 -35.15625 29.691406 -30.1875 32.578125 -26.9375 C 35.472656 -23.695312 39.132812 -22.078125 43.5625 -22.078125 C 45.382812 -22.078125 47.421875 -22.332031 49.671875 -22.84375 C 51.929688 -23.363281 53.535156 -24.097656 54.484375 -25.046875 C 54.640625 -25.203125 54.953125 -25.28125 55.421875 -25.28125 C 55.898438 -25.28125 56.789062 -24.390625 58.09375 -22.609375 C 59.40625 -20.828125 60.613281 -18.492188 61.71875 -15.609375 C 62.832031 -12.722656 63.390625 -10.488281 63.390625 -8.90625 C 63.390625 -5.8125 61.015625 -3.351562 56.265625 -1.53125 C 51.515625 0.28125 45.894531 1.1875 39.40625 1.1875 C 28.957031 1.1875 20.367188 -2.488281 13.640625 -9.84375 C 6.921875 -17.207031 3.5625 -27.59375 3.5625 -41 C 3.5625 -54.414062 7.019531 -64.960938 13.9375 -72.640625 C 20.863281 -80.316406 29.515625 -84.15625 39.890625 -84.15625 Z M 39.890625 -84.15625 "/></g></g></g><g fill="#ffffff" fill-opacity="1"><g transform="translate(93.584965, 134.747513)"><g><path d="M 28.609375 -1.65625 C 28.609375 -0.394531 24.847656 0.234375 17.328125 0.234375 C 9.734375 0.234375 5.9375 -0.359375 5.9375 -1.546875 L 5.9375 -78.9375 C 5.9375 -81.707031 7.398438 -83.09375 10.328125 -83.09375 L 33 -83.09375 C 53.8125 -83.09375 64.21875 -74.984375 64.21875 -58.765625 C 64.21875 -53.859375 63.265625 -49.40625 61.359375 -45.40625 C 59.460938 -41.40625 56.773438 -38.21875 53.296875 -35.84375 L 68.25 -10.921875 C 67.613281 -9.023438 65.554688 -6.847656 62.078125 -4.390625 C 57.328125 -0.984375 53.410156 0.71875 50.328125 0.71875 C 47.242188 0.71875 44.953125 -0.390625 43.453125 -2.609375 L 32.28125 -28.609375 L 28.609375 -28.609375 Z M 28.609375 -62.078125 L 28.609375 -44.28125 L 29.203125 -44.28125 C 36.722656 -44.28125 40.484375 -47.40625 40.484375 -53.65625 C 40.484375 -56.5 39.75 -58.613281 38.28125 -60 C 36.8125 -61.382812 34.414062 -62.078125 31.09375 -62.078125 Z M 28.609375 -62.078125 "/></g></g></g><g fill="#ffffff" fill-opacity="1"><g transform="translate(159.095567, 134.747513)"><g><path d="M 61.71875 0.234375 C 54.84375 0.234375 51.125 -0.875 50.5625 -3.09375 L 46.65625 -18.40625 L 27.78125 -18.40625 L 24.328125 -3.6875 C 23.859375 -1.226562 20.0625 0 12.9375 0 C 9.132812 0 6.320312 -0.21875 4.5 -0.65625 C 2.6875 -1.09375 1.78125 -1.425781 1.78125 -1.65625 L 22.796875 -82.03125 C 22.796875 -82.65625 28.210938 -82.96875 39.046875 -82.96875 C 49.890625 -82.96875 55.3125 -82.65625 55.3125 -82.03125 L 75.84375 -1.546875 C 75.84375 -0.992188 74.023438 -0.554688 70.390625 -0.234375 C 66.753906 0.078125 63.863281 0.234375 61.71875 0.234375 Z M 30.75 -33.46875 L 43.203125 -33.46875 L 37.859375 -58.046875 L 37.15625 -58.046875 Z M 30.75 -33.46875 "/></g></g></g><g fill="#ffffff" fill-opacity="1"><g transform="translate(232.320466, 134.747513)"><g><path d="M 50.328125 -83.09375 C 51.671875 -83.09375 52.34375 -79.585938 52.34375 -72.578125 C 52.34375 -65.578125 51.671875 -62.078125 50.328125 -62.078125 L 28.609375 -62.078125 L 28.609375 -48.546875 L 43.09375 -48.546875 C 44.4375 -48.546875 45.109375 -45.476562 45.109375 -39.34375 C 45.109375 -33.21875 44.472656 -30.15625 43.203125 -30.15625 L 28.609375 -30.15625 L 28.609375 -1.546875 C 28.609375 -0.429688 27.125 0.300781 24.15625 0.65625 C 21.1875 1.007812 18.710938 1.1875 16.734375 1.1875 L 11.15625 0.953125 C 7.28125 0.472656 5.34375 -0.316406 5.34375 -1.421875 L 5.34375 -80 C 5.34375 -81.269531 5.597656 -82.101562 6.109375 -82.5 C 6.628906 -82.894531 7.398438 -83.09375 8.421875 -83.09375 Z M 50.328125 -83.09375 "/></g></g></g><g fill="#ffffff" fill-opacity="1"><g transform="translate(283.826665, 134.747513)"><g><path d="M 41.671875 -1.90625 C 41.671875 -0.320312 37.75 0.46875 29.90625 0.46875 C 22.070312 0.46875 18.15625 -0.320312 18.15625 -1.90625 L 18.15625 -61.484375 L 3.921875 -61.484375 C 2.578125 -61.484375 1.625 -63.304688 1.0625 -66.953125 C 0.832031 -68.691406 0.71875 -70.46875 0.71875 -72.28125 C 0.71875 -74.101562 0.832031 -75.882812 1.0625 -77.625 C 1.625 -81.269531 2.578125 -83.09375 3.921875 -83.09375 L 55.546875 -83.09375 C 56.898438 -83.09375 57.851562 -81.269531 58.40625 -77.625 C 58.644531 -75.882812 58.765625 -74.101562 58.765625 -72.28125 C 58.765625 -70.46875 58.644531 -68.691406 58.40625 -66.953125 C 57.851562 -63.304688 56.898438 -61.484375 55.546875 -61.484375 L 41.671875 -61.484375 Z M 41.671875 -1.90625 "/></g></g></g><g fill="#ffffff" fill-opacity="1"><g transform="translate(94.264291, 237.739708)"><g><path d="M 71.15625 -2.625 C 71.15625 -0.957031 67.425781 -0.125 59.96875 -0.125 C 52.519531 -0.125 48.476562 -0.71875 47.84375 -1.90625 L 27.96875 -39.03125 L 27.96875 -2.015625 C 27.96875 -0.585938 24.296875 0.125 16.953125 0.125 C 9.617188 0.125 5.953125 -0.585938 5.953125 -2.015625 L 5.953125 -81.640625 C 5.953125 -82.828125 9.082031 -83.421875 15.34375 -83.421875 C 17.8125 -83.421875 20.691406 -83.203125 23.984375 -82.765625 C 27.273438 -82.328125 29.273438 -81.515625 29.984375 -80.328125 L 49.03125 -43.671875 L 49.03125 -81.03125 C 49.03125 -82.539062 52.71875 -83.296875 60.09375 -83.296875 C 67.46875 -83.296875 71.15625 -82.539062 71.15625 -81.03125 Z M 71.15625 -2.625 "/></g></g></g><g fill="#ffffff" fill-opacity="1"><g transform="translate(166.849275, 237.739708)"><g><path d="M 44.625 -50.21875 C 46.132812 -50.21875 46.890625 -47.441406 46.890625 -41.890625 C 46.890625 -40.222656 46.707031 -38.257812 46.34375 -36 C 45.988281 -33.738281 45.335938 -32.609375 44.390625 -32.609375 L 29.28125 -32.609375 L 29.28125 -20.703125 L 51.171875 -20.703125 C 52.515625 -20.703125 53.425781 -18.957031 53.90625 -15.46875 C 54.144531 -13.957031 54.265625 -12.347656 54.265625 -10.640625 C 54.265625 -8.941406 54.023438 -6.742188 53.546875 -4.046875 C 53.078125 -1.347656 52.285156 0 51.171875 0 L 10.46875 0 C 7.457031 0 5.953125 -1.226562 5.953125 -3.6875 L 5.953125 -80.203125 C 5.953125 -82.265625 6.863281 -83.296875 8.6875 -83.296875 L 51.28125 -83.296875 C 52.945312 -83.296875 53.78125 -79.785156 53.78125 -72.765625 C 53.78125 -65.742188 52.945312 -62.234375 51.28125 -62.234375 L 29.28125 -62.234375 L 29.28125 -50.21875 Z M 44.625 -50.21875 "/></g></g></g><g fill="#ffffff" fill-opacity="1"><g transform="translate(220.990457, 237.739708)"><g><path d="M 41.765625 -1.90625 C 41.765625 -0.320312 37.835938 0.46875 29.984375 0.46875 C 22.128906 0.46875 18.203125 -0.320312 18.203125 -1.90625 L 18.203125 -61.640625 L 3.921875 -61.640625 C 2.578125 -61.640625 1.628906 -63.460938 1.078125 -67.109375 C 0.835938 -68.859375 0.71875 -70.644531 0.71875 -72.46875 C 0.71875 -74.289062 0.835938 -76.078125 1.078125 -77.828125 C 1.628906 -81.472656 2.578125 -83.296875 3.921875 -83.296875 L 55.6875 -83.296875 C 57.039062 -83.296875 57.992188 -81.472656 58.546875 -77.828125 C 58.785156 -76.078125 58.90625 -74.289062 58.90625 -72.46875 C 58.90625 -70.644531 58.785156 -68.859375 58.546875 -67.109375 C 57.992188 -63.460938 57.039062 -61.640625 55.6875 -61.640625 L 41.765625 -61.640625 Z M 41.765625 -1.90625 "/></g></g></g></svg>