<svg xmlns="http://www.w3.org/2000/svg" xmlns:xlink="http://www.w3.org/1999/xlink" width="500" zoomAndPan="magnify" viewBox="0 0 375 374.999991" height="500" preserveAspectRatio="xMidYMid meet" version="1.0"><defs><clipPath id="54523475ae"><path d="M 0 35.625 L 375 35.625 L 375 339.375 L 0 339.375 Z M 0 35.625 " clip-rule="nonzero"/></clipPath></defs><rect x="-37.5" width="450" fill="#ffffff" y="-37.499999" height="449.999989" fill-opacity="1"/><rect x="-37.5" width="450" fill="#ffffff" y="-37.499999" height="449.999989" fill-opacity="1"/><g clip-path="url(#54523475ae)"><path fill="#5271ff" d="M 104.925781 65.398438 L 185.550781 65.398438 C 202.726562 65.398438 217.5 61.425781 232.425781 52.875 L 259.949219 36.976562 C 262.273438 35.625 264.898438 35.625 267.148438 36.976562 C 269.476562 38.324219 270.75 40.574219 270.75 43.199219 L 270.75 65.398438 L 326.773438 65.398438 C 339.976562 65.398438 350.773438 76.199219 350.773438 89.398438 L 350.773438 162.226562 L 368.398438 162.226562 C 372 162.226562 375 165.226562 375 168.824219 L 375 206.175781 C 375 209.773438 372 212.773438 368.398438 212.773438 L 350.773438 212.773438 L 350.773438 228.898438 C 350.773438 251.101562 341.699219 271.273438 327.074219 285.898438 C 312.449219 300.523438 292.273438 309.601562 270.074219 309.601562 L 189.449219 309.601562 C 172.273438 309.601562 157.5 313.574219 142.574219 322.125 L 115.050781 338.023438 C 112.726562 339.375 110.101562 339.375 107.851562 338.023438 C 105.523438 336.675781 104.25 334.425781 104.25 331.800781 L 104.25 309.601562 L 48.226562 309.601562 C 35.023438 309.601562 24.226562 298.800781 24.226562 285.601562 L 24.226562 212.773438 L 6.601562 212.773438 C 3 212.773438 0 209.773438 0 206.175781 L 0 168.824219 C 0 165.226562 3 162.226562 6.601562 162.226562 L 24.226562 162.226562 L 24.226562 146.101562 C 24.226562 123.898438 33.300781 103.726562 47.925781 89.101562 C 62.550781 74.476562 82.726562 65.398438 104.925781 65.398438 Z M 161.25 187.5 C 161.25 174.675781 150.824219 164.25 138 164.25 C 125.175781 164.25 114.75 174.675781 114.75 187.5 C 114.75 200.324219 125.175781 210.75 138 210.75 C 150.824219 210.75 161.25 200.324219 161.25 187.5 Z M 260.25 187.5 C 260.25 174.675781 249.824219 164.25 237 164.25 C 224.175781 164.25 213.75 174.675781 213.75 187.5 C 213.75 200.324219 224.175781 210.75 237 210.75 C 249.824219 210.75 260.25 200.324219 260.25 187.5 Z M 320.773438 187.5 L 320.773438 95.476562 C 313.726562 95.476562 306.601562 95.476562 299.550781 95.476562 C 283.648438 95.476562 270.75 82.5 270.75 66.675781 L 270.75 65.476562 L 249.675781 77.625 C 228.449219 89.851562 207.523438 95.476562 183 95.476562 L 104.925781 95.476562 C 90.976562 95.476562 78.375 101.175781 69.148438 110.398438 C 59.925781 119.625 54.226562 132.226562 54.226562 146.175781 L 54.226562 279.601562 C 61.273438 279.601562 68.398438 279.601562 75.449219 279.601562 C 91.351562 279.601562 104.25 292.574219 104.25 308.398438 L 104.25 309.601562 L 125.324219 297.449219 C 146.550781 285.226562 167.476562 279.601562 192 279.601562 L 270.074219 279.601562 C 284.023438 279.601562 296.625 273.898438 305.851562 264.675781 C 315.074219 255.449219 320.773438 242.851562 320.773438 228.898438 Z M 320.773438 187.5 " fill-opacity="1" fill-rule="evenodd"/></g></svg>